<svg width="20" height="20" viewBox="0 0 20 20" fill="none" xmlns="http://www.w3.org/2000/svg">
    <path d="M6.73563 11.0901C7.2091 11.0901 7.64616 10.9323 7.99826 10.6592L5.10876 7.77075C4.8356 8.11665 4.67776 8.55355 4.67776 9.03295C4.6717 10.1677 5.5944 11.0901 6.73563 11.0901Z" fill="#04795B"/>
    <path d="M15.3303 9.02681C15.3303 8.55351 15.1724 8.11662 14.8993 7.76465L12.0098 10.6531C12.3558 10.9261 12.7929 11.0839 13.2724 11.0839C14.4076 11.09 15.3303 10.1676 15.3303 9.02681Z" fill="#04795B"/>
    <path d="M16.7871 5.88965L15.5062 7.17005C15.9312 7.67975 16.1861 8.32298 16.1861 9.03905C16.1861 10.6471 14.881 11.9517 13.2723 11.9517C12.5621 11.9517 11.9126 11.6969 11.4027 11.2721L10.0004 12.6738L8.59813 11.2721C8.08823 11.6969 7.44476 11.9517 6.72846 11.9517C5.1198 11.9517 3.81466 10.6471 3.81466 9.03905C3.81466 8.32905 4.06963 7.67975 4.49456 7.17005L3.83896 6.51468L3.21371 5.88965C2.48526 7.09115 2.06641 8.49291 2.06641 9.99781C2.06641 14.379 5.61756 17.9228 9.99433 17.9228C14.3711 17.9228 17.9222 14.3729 17.9222 9.99781C17.9344 8.48685 17.5155 7.08508 16.7871 5.88965Z" fill="#04795B"/>
    <path d="M15.7366 4.52425C14.2979 3.01328 12.2582 2.06665 10.0001 2.06665C7.74188 2.06665 5.70831 3.01328 4.26358 4.52425C4.06931 4.73058 3.88114 4.94905 3.70508 5.17355L9.99401 11.4601L16.2829 5.16748C16.1251 4.94901 15.9369 4.72451 15.7366 4.52425ZM10.0001 3.09824C11.8576 3.09824 13.5816 3.81428 14.8746 5.11895L10.0001 9.99168L5.12554 5.11895C6.42461 3.81428 8.14254 3.09824 10.0001 3.09824Z" fill="#04795B"/>
</svg>
